<svg width="164" height="167" viewBox="0 0 164 167" fill="none" xmlns="http://www.w3.org/2000/svg">
<path d="M1.00005 117V146.5C1.00005 157.546 9.95435 166.5 21 166.5H51.5" stroke="black"/>
<path d="M7.88547 89.5951L7.81075 27.0116C7.79753 15.9451 16.7736 6.97145 27.8401 6.98769L138.293 7.14986C149.318 7.16604 158.251 16.1011 158.264 27.126L158.397 139.135C158.411 150.201 149.435 159.175 138.368 159.158L27.9151 158.996C16.8902 158.98 7.95764 150.045 7.94449 139.02L7.88547 89.5951Z" stroke="black"/>
<path d="M163.5 51.5V21.1267C163.5 10.1134 154.596 1.17254 143.583 1.12686L113 1" stroke="black"/>
<path d="M51 153.5H130.5C141.546 153.5 150.5 144.546 150.5 133.5V52" stroke="black"/>
<path d="M13.9767 117.49L13.9801 33.951C13.9805 22.906 22.9342 13.9523 33.9792 13.9518L114.981 13.9484" stroke="black"/>
<path d="M111.906 46.6313C111.387 46.6813 110.787 46.8751 110.312 47.1438C109.631 47.5313 109.162 48.0876 107.769 50.1563C107.044 51.2188 105.625 53.3188 104.612 54.8126C101.981 58.7001 94.0812 70.3501 85.5 83.0001C81.4312 89.0001 77.575 94.6938 76.9187 95.6563C76.2687 96.6188 75.7187 97.4188 75.7062 97.4376C75.6937 97.4501 72.15 93.9313 67.825 89.6188C59.4 81.2063 59.6937 81.4813 58.75 81.1813C58.4812 81.0938 58.1062 81.0376 57.6562 81.0188C56.825 80.9813 56.4062 81.0688 55.625 81.4438C55.0937 81.7001 55.075 81.7188 51.6812 85.1188C48.2625 88.5313 48.2625 88.5313 48.0125 89.0626C47.3625 90.4251 47.4562 91.9626 48.2562 93.1563C48.475 93.4751 51.7812 96.8188 60.7312 105.756C73.8375 118.85 73.1687 118.213 74.4687 118.863C75.9062 119.575 77.4875 119.813 78.7125 119.5C79.7875 119.225 80.9375 118.513 81.7937 117.6C82.1062 117.269 84.3812 113.963 89.7812 105.988C93.9375 99.8626 99.8 91.2126 102.806 86.7813C105.812 82.3438 110.281 75.7501 112.737 72.1251C115.2 68.5001 118.444 63.7126 119.95 61.4938C121.456 59.2688 122.769 57.2813 122.875 57.0751C123.131 56.5563 123.256 55.9626 123.256 55.2876C123.25 54.5876 123.137 54.1251 122.806 53.4438C122.362 52.5438 122.112 52.3376 118.162 49.6563C116.244 48.3501 114.475 47.1751 114.231 47.0501C113.569 46.7001 112.737 46.5501 111.906 46.6313Z" fill="#3E3E3E"/>
</svg>
