<svg width="164" height="167" viewBox="0 0 164 167" fill="none" xmlns="http://www.w3.org/2000/svg">
<path d="M1.00005 117V146.5C1.00005 157.546 9.95435 166.5 21 166.5H51.5" stroke="black"/>
<path d="M7.88547 89.5951L7.81075 27.0116C7.79753 15.9451 16.7736 6.97145 27.8401 6.98769L138.293 7.14986C149.318 7.16604 158.251 16.1011 158.264 27.126L158.397 139.135C158.411 150.201 149.435 159.175 138.368 159.158L27.9151 158.996C16.8902 158.98 7.95764 150.045 7.94449 139.02L7.88547 89.5951Z" stroke="black"/>
<path d="M163.5 51.5V21.1267C163.5 10.1134 154.596 1.17254 143.583 1.12686L113 1" stroke="black"/>
<path d="M51 153.5H130.5C141.546 153.5 150.5 144.546 150.5 133.5V52" stroke="black"/>
<path d="M13.9767 117.49L13.9801 33.951C13.9805 22.906 22.9342 13.9523 33.9792 13.9518L114.981 13.9484" stroke="black"/>
<path d="M80.2077 31.1857C69.5256 32.1074 60.3088 40.1189 57.6147 50.7773C57.1893 52.4789 57.1184 53.4715 57.1184 57.04C57.1184 60.8686 57.1893 61.5303 57.7329 63.5627C59.9543 71.7869 66.3352 78.7113 74.2286 81.4527C77.2299 82.4926 79.1915 82.7998 82.8545 82.7998C86.5176 82.7998 88.4791 82.4926 91.4805 81.4527C95.309 80.1293 98.4758 78.026 101.572 74.8119C105.14 71.1016 107.031 67.5803 108.307 62.3574C108.496 61.5303 108.614 59.5924 108.614 56.9219C108.591 53.4479 108.52 52.4553 108.071 50.7064C107.007 46.4053 104.857 42.5059 101.761 39.2445C96.0889 33.2182 88.7155 30.4531 80.2077 31.1857Z" fill="#3E3E3E"/>
<path d="M55.2042 78.8059C51.7301 79.5149 48.6579 80.8619 46.4364 82.6344C43.3169 85.1395 40.1264 90.1969 38.4485 95.2307C36.7469 100.383 35.8016 105.913 35.4708 112.908C35.1399 119.856 35.5417 122.621 37.4087 126.237C39.0157 129.333 42.0171 131.956 45.562 133.374C48.8942 134.721 47.8071 134.674 82.8546 134.674C111.332 134.674 115.35 134.627 116.957 134.296C123.078 133.043 127.544 129.262 129.388 123.756C130.333 120.967 130.546 118.036 130.262 112.554C129.648 101.517 127.544 93.6473 123.527 87.4082C120.147 82.1854 114.972 79.0895 108.969 78.735C106.322 78.5696 106.653 78.4514 101.855 81.5237C96.9633 84.6905 93.4657 86.2266 88.7628 87.3137C85.8796 87.9991 79.3569 87.9282 76.4737 87.2192C71.7944 86.0375 68.793 84.6905 63.8538 81.5237C59.3872 78.6405 59.4108 78.6641 57.402 78.6877C56.4567 78.7114 55.4641 78.7586 55.2042 78.8059Z" fill="#3E3E3E"/>
</svg>
