<svg width="125" height="73" viewBox="0 0 125 73" fill="none" xmlns="http://www.w3.org/2000/svg">
<path d="M68.7862 8.08215C66.9775 9.23386 64.5658 10.7503 63.4309 11.4605C61.9768 12.3627 61.3384 12.8617 61.3384 13.1113C61.3384 13.572 61.5689 13.5528 62.4201 12.9577C63.2004 12.4394 63.6082 12.1899 66.0376 10.7119C66.9243 10.1936 67.8464 9.59857 68.1124 9.40662C68.3606 9.19547 68.6089 9.04191 68.6621 9.04191C68.7153 9.04191 69.3714 8.658 70.1339 8.17813C70.9142 7.69825 71.588 7.31435 71.6589 7.31435C71.7299 7.31435 71.8717 7.4871 71.9781 7.69825C72.1732 8.08215 71.8185 8.40847 68.006 11.2494C65.3638 13.2265 56.2491 20.2711 52.0109 23.6302C50.3263 24.9547 46.6734 27.834 43.8716 30.0606C41.0698 32.268 36.14 36.2222 32.9304 38.8136L27.114 43.5356L24.7556 43.67C21.1558 43.8619 14.6833 44.361 14.0804 44.4762L13.5484 44.5721L13.9917 44.169C14.24 43.9579 14.6833 43.6316 14.967 43.4588C15.2685 43.2861 15.9778 42.8062 16.563 42.3647C17.1482 41.9424 18.0703 41.3473 18.6023 41.021C19.1342 40.7139 20.0209 40.138 20.5529 39.7541C21.0849 39.3702 22.9113 38.1418 24.6137 37.0668C26.316 35.9727 27.6105 35.0321 27.4864 34.9937C27.2914 34.917 16.758 41.6545 13.6903 43.8043C12.5376 44.6105 12.2716 44.7065 10.7643 44.9176C4.52238 45.7622 4.77064 45.7238 4.77064 46.2613V46.7604L10.126 46.626C13.0873 46.5684 18.3008 46.3573 21.7055 46.2037C49.7943 44.8217 74.6203 44.8217 103.631 46.2037C107.142 46.3765 112.427 46.5684 115.388 46.626L120.743 46.7604V46.2613C120.743 45.6663 121.027 45.743 116.062 45.1096L112.71 44.6681L108.064 40.9251C105.493 38.852 102.248 36.2414 100.865 35.1281C99.464 34.0148 97.1588 32.1721 95.7401 31.0204C94.3215 29.8878 92.9916 28.8705 92.7788 28.7553C92.5482 28.6594 92.3709 28.4866 92.3709 28.3906C92.3709 28.2946 92.3 28.2754 92.1936 28.333C92.1049 28.3906 92.0163 28.3714 92.0163 28.2754C92.0163 28.0259 89.9238 26.3175 89.3386 26.0872C89.0549 25.9912 88.8598 25.8185 88.913 25.7417C88.9662 25.6457 88.5761 25.3002 88.0796 24.9739C87.5653 24.6284 87.0688 24.2253 86.9978 24.0909C86.9092 23.9373 86.7851 23.8606 86.6964 23.9181C86.6077 23.9757 86.4481 23.8414 86.3417 23.6302C86.2353 23.4191 86.0403 23.2463 85.8984 23.2463C85.7566 23.2463 85.6324 23.1695 85.6324 23.0928C85.6324 22.9008 84.0719 21.6147 83.8591 21.6147C83.7705 21.6147 83.5754 21.442 83.4335 21.2308C83.274 20.9813 83.1144 20.9237 83.0257 21.0389C82.937 21.1349 82.9193 21.2116 82.9548 21.1924C82.9902 21.154 83.1498 21.3076 83.3094 21.4996C83.6286 21.9027 85.6324 23.4383 85.8275 23.4383C85.8984 23.4383 86.1999 23.6686 86.4836 23.9565C87.4412 24.9547 89.6755 26.8166 92.3709 28.9089C94.0378 30.195 94.9954 30.9436 96.6268 32.268C101.663 36.3374 106.078 39.8885 108.65 41.9616C110.228 43.2285 111.522 44.3226 111.522 44.4186C111.522 44.4953 111.256 44.5145 110.955 44.457C110.636 44.3994 108.65 44.2266 106.557 44.0731C98.7902 43.4972 99.6768 43.6508 98.6483 42.7486C97.5489 41.808 97.0701 41.4049 94.0023 38.852C92.7078 37.7579 91.5729 36.8749 91.502 36.8749C91.4133 36.8749 91.3069 36.7405 91.236 36.5869C91.1828 36.4334 91.0764 36.299 90.9877 36.299C90.8991 36.299 90.4735 35.9535 90.0479 35.5312C89.4805 34.9554 89.179 34.7826 88.913 34.8786C88.7179 34.9362 88.3988 35.0129 88.186 35.0321C87.9909 35.0321 87.8136 35.1473 87.8136 35.2817C87.8136 35.416 87.8845 35.4736 87.9554 35.4352C88.0264 35.3777 88.3278 35.6464 88.647 36.0303C88.9485 36.4142 90.0479 37.4507 91.0941 38.3337C95.3855 42 96.8041 43.2669 96.8041 43.4396C96.8041 43.5548 96.6623 43.574 96.5027 43.4972C96.3253 43.4204 93.8427 43.3244 91.0055 43.2669L85.8098 43.1517L85.7743 38.3529C85.7388 34.725 85.6679 33.5349 85.5083 33.4581C85.331 33.4006 85.2778 34.4563 85.2778 38.3337V43.2669L82.5824 43.1517C81.1105 43.0749 79.2309 43.0173 78.4152 43.0173H76.9433V34.5907C76.9433 27.3349 76.9079 26.1448 76.6773 25.9336C76.4468 25.7225 76.4113 26.6631 76.4113 34.2451C76.4113 38.948 76.3404 42.8446 76.2695 42.9022C76.1808 42.9597 74.3011 42.9405 72.1023 42.883L68.0769 42.7678V27.738V12.7274L68.9281 11.9788C69.3891 11.5565 70.4531 10.6735 71.3043 10.0209L72.847 8.81157L73.7337 9.84811L74.6203 10.8654L74.6381 16.6624V22.4593L75.2232 22.9392C75.5602 23.2271 75.8793 23.4383 75.9325 23.4383C76.0035 23.4383 76.0567 21.7107 76.0567 19.58V15.7218L76.9079 16.3937C78.0073 17.2574 78.1846 17.3534 78.1846 17.1231C78.1846 17.0271 77.759 16.624 77.2625 16.2209C76.7483 15.8178 76.2695 15.3955 76.1985 15.2803C76.0212 15.0308 76.0212 11.9212 76.1985 11.9212C76.2695 11.9212 77.2448 12.6506 78.362 13.5528C81.1992 15.7986 82.5824 16.8927 83.5045 17.6029C83.9478 17.9485 85.3132 19.0426 86.5368 20.0215C87.7781 21.0005 89.445 22.325 90.2607 22.9776C91.0764 23.6302 94.3392 26.2024 97.5134 28.7169C100.688 31.2315 103.915 33.7845 104.695 34.3987C105.475 35.0129 106.593 35.8959 107.178 36.3566C117.888 44.8217 118.243 45.0904 118.438 44.8409C118.651 44.5721 117.693 43.7467 110.104 37.8154C108.596 36.6253 105.759 34.3795 103.809 32.8439C101.858 31.2891 99.1449 29.1392 97.7794 28.0643C96.414 27.0086 93.3462 24.5708 90.9523 22.6705C83.9301 17.0847 78.5925 12.8425 77.3689 11.902C76.7483 11.4221 75.6488 10.2896 74.9218 9.40662C74.1947 8.52364 73.2549 7.39112 72.847 6.89205L72.0668 6.00908L68.7862 8.08215ZM67.5449 27.9491V42.8254H63.3777H59.2105L59.2459 31.2699L59.2991 19.7144L63.3777 16.3937C65.6298 14.5701 67.474 13.0729 67.5094 13.0729C67.5272 13.0729 67.5449 19.772 67.5449 27.9491ZM58.6785 31.5962V42.8254H56.7811C55.7171 42.8254 53.8552 42.883 52.6139 42.9597L50.3441 43.0749V35.0321V26.9702L54.3871 23.6878C56.6037 21.8835 58.4657 20.3862 58.5544 20.3862C58.6253 20.367 58.6785 25.4154 58.6785 31.5962ZM49.7766 42.9213C49.7411 42.9597 47.8437 42.9981 45.5562 43.0365L41.389 43.1133L41.3712 38.7368V34.3411L45.5384 30.9052L49.7234 27.4884L49.7766 35.1857C49.7943 39.4278 49.7943 42.9022 49.7766 42.9213ZM40.857 39.0247C40.8038 41.2706 40.7328 43.1133 40.7151 43.1325C40.6265 43.2285 30.6606 43.3052 30.6606 43.2093C30.6783 43.1517 31.0152 42.8446 31.4231 42.5182C31.831 42.1727 34.0476 40.3492 36.3351 38.4489C38.6226 36.5294 40.6087 34.9746 40.7328 34.9746C40.9102 34.9554 40.9456 35.7424 40.857 39.0247Z" fill="#EDF2F4"/>
<path d="M49.0141 17.814C48.2338 18.2939 46.0704 19.6568 44.1908 20.8277C42.3111 21.9986 39.4029 23.8221 37.7183 24.8587C33.9944 27.1813 26.7771 31.6921 23.0355 34.0339C21.5282 34.9937 19.2584 36.4333 17.9816 37.2203C16.7226 38.0265 14.5237 39.4086 13.1051 40.3108C11.6864 41.2129 9.82449 42.403 8.93784 42.9597C8.06894 43.5163 7.21776 44.0538 7.0759 44.1498C6.8631 44.2841 6.8631 44.3801 7.0227 44.5529C7.18229 44.7448 7.28869 44.7256 7.51922 44.4761C7.67881 44.3033 7.87387 44.169 7.96254 44.169C8.12213 44.169 8.72505 43.7851 15.1443 39.6965C20.1627 36.4909 21.7764 35.4736 24.4541 33.8036C25.8727 32.9206 28.0716 31.5386 29.3306 30.7324C30.6074 29.9262 33.7461 27.9491 36.3351 26.3175C38.9241 24.7051 42.1515 22.6704 43.5169 21.8066C44.8823 20.9429 47.0635 19.5608 48.3402 18.7354C49.6347 17.9292 50.6455 17.1806 50.5923 17.0846C50.5391 16.9886 50.4859 16.9119 50.4682 16.9311C50.4504 16.9311 49.7943 17.3342 49.0141 17.814Z" fill="#EDF2F4"/>
<path d="M79.426 18.3899C79.6742 18.5627 79.9048 18.7738 79.958 18.8314C80.1708 19.1002 81.9263 20.4054 81.9972 20.3287C82.1214 20.1943 79.4969 18.0636 79.1955 18.0636C79.0891 18.0636 79.1955 18.2172 79.426 18.3899Z" fill="#EDF2F4"/>
<path d="M36.7783 28.8321C36.7074 28.9472 36.7074 29.0816 36.7606 29.1392C36.8138 29.216 36.867 29.1584 36.867 29.024C36.867 28.8897 36.9556 28.8513 37.0798 28.928C37.2039 29.0048 37.2216 28.9856 37.1507 28.8513C36.9911 28.5633 36.9202 28.5633 36.7783 28.8321Z" fill="#EDF2F4"/>
<path d="M33.7639 30.8092C33.4802 30.9244 33.3206 31.0971 33.427 31.1547C33.5156 31.2315 33.7993 31.1163 34.0299 30.9052C34.5441 30.4829 34.4909 30.4637 33.7639 30.8092Z" fill="#EDF2F4"/>
<path d="M31.1571 32.3832C30.501 32.7479 30.5364 32.8823 31.1926 32.6327C31.494 32.5176 31.7245 32.3448 31.7245 32.2488C31.7245 32.0377 31.7423 32.0377 31.1571 32.3832Z" fill="#EDF2F4"/>
<path d="M30.093 33.3238C30.0398 33.3814 29.8093 33.4774 29.5965 33.5157C29.1 33.6117 28.7985 33.8997 29.0113 34.0532C29.1 34.1108 29.4724 33.938 29.8625 33.6885C30.2526 33.439 30.4831 33.2278 30.3767 33.2278C30.2704 33.2278 30.1462 33.2662 30.093 33.3238Z" fill="#EDF2F4"/>
<path d="M27.8943 34.6099C27.717 34.917 27.9298 34.9554 28.2667 34.7058C28.5504 34.4755 28.5504 34.4371 28.2845 34.4371C28.1249 34.4371 27.9475 34.5139 27.8943 34.6099Z" fill="#EDF2F4"/>
<path d="M28.3552 57.4137V64.324H29.2419H30.1285V62.8268C30.1285 61.3679 30.1285 61.3487 30.7492 60.8113C31.0861 60.5233 31.4585 60.3314 31.5471 60.389C31.6358 60.4466 32.3628 61.3679 33.1608 62.4045L34.5972 64.324H35.6612C36.2463 64.324 36.6897 64.2472 36.6542 64.1512C36.6365 64.0552 35.8562 63.0379 34.9341 61.8862C34.012 60.7537 33.1254 59.6596 32.9835 59.4676C32.7352 59.1605 32.8771 58.9685 34.6504 57.0298L36.601 54.9184H35.537L34.4731 54.9375L32.3451 57.145L30.2172 59.3524L30.164 54.9375L30.1285 50.5035H29.2419H28.3552V57.4137Z" fill="#EDF2F4"/>
<path d="M44.1375 57.4329V64.3431L45.0596 64.2856L45.9639 64.228L45.9817 57.3753L45.9994 50.5034H45.0773H44.1375V57.4329Z" fill="#EDF2F4"/>
<path d="M49.4575 57.4137V64.324H50.3442H51.2308V57.4137V50.5035H50.3442H49.4575V57.4137Z" fill="#EDF2F4"/>
<path d="M75.17 50.657C73.9109 51.0793 74.106 53.1908 75.4005 53.1908C75.897 53.1908 76.5886 52.4614 76.5886 51.9239C76.5886 51.1177 75.8261 50.4459 75.17 50.657Z" fill="#EDF2F4"/>
<path d="M85.6324 53.2291V55.9356L85.2423 55.5325C84.6571 54.9567 83.9833 54.7263 82.8661 54.7263C81.6071 54.7263 80.9155 55.0526 80.0998 56.0316C79.2486 57.0489 78.823 58.5845 78.9294 60.1969C79.1245 62.7883 80.7913 64.535 83.0789 64.5158C83.8414 64.5158 85.065 63.9784 85.4374 63.4985C85.7388 63.0954 85.9871 63.249 85.9871 63.8632C85.9871 64.3047 86.0403 64.3431 86.7496 64.2855L87.4944 64.2279L87.5476 57.356L87.583 50.5034H86.6077H85.6324V53.2291ZM85.0295 56.8378L85.6324 57.2601V59.2564C85.6324 60.6384 85.5438 61.4446 85.3664 61.8093C84.8699 62.8651 82.9193 63.249 81.9617 62.4811C81.3411 62.0013 80.6672 60.6 80.6672 59.813C80.6672 58.431 81.4475 56.857 82.3341 56.4347C82.9016 56.1659 84.3379 56.3963 85.0295 56.8378Z" fill="#EDF2F4"/>
<path d="M39.1014 51.0601C38.6403 51.6167 38.7822 52.6341 39.4029 52.9988C39.8284 53.2483 39.9348 53.2483 40.3604 52.9988C41.4776 52.3269 41.2116 50.6953 39.988 50.6953C39.6334 50.6953 39.2787 50.8489 39.1014 51.0601Z" fill="#EDF2F4"/>
<path d="M19.1875 51.348C18.1235 51.7127 17.4497 52.3078 17.0241 53.2483C16.4212 54.592 16.5808 56.0316 17.4142 56.9914C17.9639 57.6248 18.8861 58.1047 20.4997 58.5846C22.3794 59.1413 23.1419 59.5827 23.337 60.2354C23.5675 61.0224 23.4434 61.5215 22.8405 62.1357C22.3262 62.6732 22.2376 62.6924 20.6771 62.6924C19.3116 62.6924 18.8506 62.5964 17.893 62.1741C17.2724 61.8862 16.7404 61.675 16.7226 61.6942C16.7049 61.7134 16.6517 62.1357 16.6163 62.6348L16.5276 63.5369L17.6093 63.94C19.0102 64.4583 21.28 64.6503 22.4681 64.3239C22.9823 64.2088 23.7094 63.8441 24.1172 63.5177C25.0748 62.7691 25.394 61.8862 25.3053 60.3314C25.2344 59.1796 25.1812 59.0453 24.5074 58.3734C23.9399 57.7784 23.4079 57.5097 21.6878 56.9338C19.3471 56.1468 18.6023 55.6093 18.6023 54.6688C18.6023 53.8626 18.8683 53.4595 19.6663 53.114C20.8189 52.6149 22.9646 52.826 24.2236 53.5363C24.5606 53.7474 24.596 53.6898 24.7202 52.8836C24.7734 52.3846 24.7734 51.9239 24.6847 51.8471C24.3832 51.5208 22.3085 51.0793 21.1559 51.0985C20.482 51.0985 19.5954 51.2137 19.1875 51.348Z" fill="#EDF2F4"/>
<path d="M55.3093 57.7976V64.324H58.1998C61.4272 64.324 62.5266 64.0936 63.4842 63.2299C64.1935 62.5772 64.5304 61.7134 64.5304 60.5809C64.5304 59.3908 64.1403 58.6422 63.2359 58.1623C62.8281 57.932 62.4557 57.7208 62.4202 57.6825C62.367 57.6441 62.6685 57.2986 63.0763 56.9146C64.4417 55.6478 64.4949 53.8626 63.2004 52.4998C62.2074 51.4632 61.3917 51.2713 57.9693 51.2713H55.3093V57.7976ZM61.5868 53.5555C62.2606 54.2465 62.2429 55.5134 61.5336 56.2812C61.0193 56.8187 60.9661 56.8379 59.1396 56.8379H57.2599V54.8992V52.9604L59.1928 53.0372C60.9484 53.0948 61.1789 53.1524 61.5868 53.5555ZM61.4094 58.6422C62.6685 59.2181 62.9876 60.7537 62.0655 61.867L61.5513 62.5004L59.4056 62.558L57.2599 62.6348V60.5041V58.3735H59.0332C60.1504 58.3735 61.037 58.4695 61.4094 58.6422Z" fill="#EDF2F4"/>
<path d="M93.3818 54.7072C91.5553 55.1103 90.1721 57.1642 90.1721 59.4868C90.1721 61.1375 90.4736 62.0781 91.3602 63.1146C92.5661 64.5351 94.7117 64.8998 96.2368 63.94C96.5737 63.7097 96.8751 63.5753 96.9283 63.6137C97.0525 63.7481 96.6091 65.5524 96.3609 65.9939C96.219 66.2243 95.8289 66.5122 95.4742 66.6466C94.8713 66.8961 94.7117 67.2416 94.9955 67.7407C95.2082 68.0862 96.5027 67.8367 97.1943 67.3184C98.5775 66.301 98.7548 65.3989 98.7548 59.41V54.9183H97.9568C97.283 54.9183 97.1589 54.9759 97.1589 55.3022C97.1589 55.7245 96.8929 55.8205 96.6978 55.475C96.3786 54.8991 94.4989 54.4768 93.3818 54.7072ZM96.0594 56.6459L96.8042 57.0106V59.5252V62.0205L96.2368 62.4236C95.3856 62.9803 93.63 62.8651 92.9739 62.2125C92.1759 61.3871 91.9809 60.7536 92.0518 59.314C92.1227 57.8168 92.4774 57.1258 93.4527 56.6075C94.2329 56.166 95.1019 56.1852 96.0594 56.6459Z" fill="#EDF2F4"/>
<path d="M104.695 54.7072C103.365 55.0719 102.39 55.9356 101.716 57.3177C101.184 58.431 101.184 60.8496 101.716 61.9437C102.798 64.1512 105.05 64.9574 107.994 64.1896C109.288 63.8632 109.377 63.7289 109.111 62.6539C109.004 62.27 108.987 62.2508 108.366 62.5388C107.426 62.9803 105.209 62.9803 104.482 62.558C103.809 62.1549 103.277 61.3679 103.099 60.5233L102.975 59.909H106.362H109.749V59.2756C109.749 58.335 109.306 56.9146 108.792 56.1852C108.011 55.0527 106.007 54.3424 104.695 54.7072ZM106.876 56.4539C107.391 56.7994 107.976 57.8168 107.976 58.3734C107.976 58.4886 107.107 58.5654 105.582 58.5654C102.922 58.5654 102.833 58.5078 103.525 57.2985C104.181 56.1468 105.777 55.7437 106.876 56.4539Z" fill="#EDF2F4"/>
<path d="M70.6483 54.9951C70.3468 55.1295 69.8857 55.5134 69.6375 55.8589C69.3715 56.1852 69.1232 56.454 69.07 56.454C69.0168 56.454 68.9636 56.1085 68.9636 55.6862V54.9184H68.1657H67.3677V59.6212V64.324H68.2543H69.141V61.3871C69.141 58.7958 69.1764 58.3927 69.4956 57.836C69.9035 57.1258 70.7724 56.6459 71.6768 56.6459C72.2619 56.6459 72.2974 56.6075 72.3861 55.8397C72.4393 55.3982 72.4393 54.9567 72.4038 54.88C72.2619 54.6496 71.2512 54.7072 70.6483 54.9951Z" fill="#EDF2F4"/>
<path d="M38.9951 59.6212V64.324H39.8818H40.7684V59.6212V54.9184H39.8818H38.9951V59.6212Z" fill="#EDF2F4"/>
<path d="M74.5671 55.8013C74.5139 56.3004 74.4607 58.4119 74.4607 60.5041V64.324H75.3473H76.234V61.4831C76.2517 59.9283 76.2872 58.1047 76.3226 57.4137C76.3581 56.7227 76.3404 55.8781 76.2872 55.5326C76.1985 54.9567 76.1453 54.9184 75.436 54.9184H74.6912L74.5671 55.8013Z" fill="#EDF2F4"/>
</svg>
