<svg width="53" height="54" viewBox="0 0 53 54" fill="none" xmlns="http://www.w3.org/2000/svg">
<path d="M0.999974 37.4456V42.9979C0.999974 48.5207 5.47713 52.9979 11 52.9979H16.8665" stroke="black"/>
<path d="M3.16318 28.8354L3.14416 12.8985C3.13755 7.36528 7.62559 2.87847 13.1588 2.88659L40.4293 2.92663C45.9418 2.93472 50.4081 7.40222 50.4147 12.9147L50.4478 40.6739C50.4544 46.2072 45.9664 50.694 40.4331 50.6859L13.1626 50.6458C7.65016 50.6377 3.18388 46.1702 3.1773 40.6578L3.16318 28.8354Z" stroke="black"/>
<path d="M52.0557 16.8665V11.0244C52.0557 5.51772 47.6038 1.04731 42.0972 1.02447L36.1892 0.999959" stroke="black"/>
<path d="M16.7092 48.914H37.9709C43.4938 48.914 47.9709 44.4369 47.9709 38.914V17.0239" stroke="black"/>
<path d="M5.07737 37.6L5.07828 15.069C5.07851 9.54649 9.55534 5.06966 15.0779 5.06943L36.8118 5.06851" stroke="black"/>
<path d="M10.5 42.5L10.7815 34.478C10.9445 29.8319 17.3461 28.7234 19.0617 33.0443V33.0443C20.6844 37.131 26.6719 36.4257 27.3005 32.0737L28.4273 24.2726C29.0214 20.1597 34.9002 20.0011 35.7152 24.0759V24.0759C36.5468 28.2341 42.5831 27.9505 43.0213 23.7328L44.5 9.5" stroke="#3E3E3E"/>
</svg>
