<svg width="53" height="54" viewBox="0 0 53 54" fill="none" xmlns="http://www.w3.org/2000/svg">
<path d="M1.00022 37.4456V42.9979C1.00022 48.5207 5.47737 52.9979 11.0002 52.9979H16.8667" stroke="black"/>
<path d="M3.16318 28.8354L3.14416 12.8985C3.13755 7.36528 7.62559 2.87847 13.1588 2.88659L40.4293 2.92663C45.9418 2.93472 50.4081 7.40222 50.4147 12.9147L50.4478 40.6739C50.4544 46.2072 45.9664 50.694 40.4331 50.6859L13.1626 50.6458C7.65016 50.6377 3.18388 46.1702 3.1773 40.6578L3.16318 28.8354Z" stroke="black"/>
<path d="M52.0555 16.8665V11.0244C52.0555 5.51772 47.6036 1.04731 42.0969 1.02447L36.189 0.999959" stroke="black"/>
<path d="M16.709 48.914H37.9707C43.4935 48.914 47.9707 44.4369 47.9707 38.914V17.0239" stroke="black"/>
<path d="M5.07737 37.6L5.07828 15.069C5.07851 9.54649 9.55534 5.06966 15.0779 5.06943L36.8118 5.06851" stroke="black"/>
<g clip-path="url(#clip0_102_102)">
<path d="M19.5819 13.0827C19.4391 13.1483 19.3225 13.2654 19.2642 13.4052C19.2234 13.4994 19.2176 14.1816 19.2176 19.8358V26.1579H16.8945C15.3438 26.1579 14.5306 26.1693 14.4577 26.1893C14.3032 26.2293 14.1312 26.392 14.0671 26.5518C14.0176 26.6745 14.0146 26.8115 14.0146 28.2986V29.9141L14.0904 30.0539C14.1342 30.1396 14.2129 30.2309 14.2886 30.2823L14.414 30.3679L16.807 30.3822L19.203 30.3965L19.2117 31.5581L19.2176 32.7198L16.8507 32.7284L14.481 32.7369L14.3615 32.7997C14.2945 32.834 14.207 32.9025 14.1662 32.9481C14.0176 33.1222 14.0146 33.1479 14.0146 34.6207C14.0146 35.3742 14.0263 36.0393 14.038 36.0992C14.0671 36.2362 14.2391 36.4246 14.3936 36.4931C14.5043 36.5416 14.6501 36.5473 16.8653 36.5473H19.2176V38.5367C19.2176 40.4034 19.2234 40.5375 19.2729 40.6431C19.34 40.7887 19.5032 40.9314 19.646 40.9685C19.8064 41.0142 23.2983 41.0113 23.4469 40.9685C23.5927 40.9229 23.753 40.7944 23.8317 40.6488L23.8958 40.529L23.9046 38.5367L23.9133 36.5473H29.1075C34.0685 36.5473 34.3075 36.5445 34.4182 36.4931C34.564 36.4303 34.7126 36.2676 34.7534 36.1277C34.7768 36.0535 34.7826 35.5655 34.7768 34.5722L34.768 33.1279L34.6806 33.0052C34.6281 32.931 34.5348 32.8539 34.4474 32.8111L34.3046 32.7369L29.1075 32.7284L23.9104 32.7226V31.5524V30.385L27.8833 30.3736C31.3052 30.3651 31.8998 30.3565 32.1884 30.3194C33.844 30.0939 35.0303 29.68 36.2108 28.9123C36.7005 28.5954 36.9949 28.3585 37.4613 27.9161C38.9041 26.5347 39.7028 24.8792 39.9272 22.8042C39.9826 22.279 39.9826 21.1316 39.9272 20.6093C39.6998 18.5114 38.8662 16.8132 37.3738 15.4117C36.0622 14.1816 34.4066 13.4109 32.4945 13.1455C31.6842 13.0313 31.4655 13.0285 25.5019 13.0285C19.9142 13.0285 19.6956 13.0313 19.5819 13.0827ZM30.9496 17.2841C32.133 17.384 33.1037 17.7922 33.8615 18.5086C34.2375 18.8654 34.4824 19.1879 34.6951 19.6075C34.8875 19.9871 34.9866 20.2639 35.0799 20.6892C35.1382 20.9432 35.144 21.0631 35.144 21.7053C35.1469 22.3589 35.1382 22.4645 35.0799 22.7328C34.8788 23.6291 34.5144 24.2827 33.8673 24.8963C33.1007 25.6213 32.1768 26.0209 31.0079 26.1294C30.8068 26.1465 29.4135 26.1579 27.3003 26.1579H23.9104V21.7053V17.2527H27.2566C29.3173 17.2527 30.7339 17.2641 30.9496 17.2841Z" fill="#3E3E3E"/>
</g>
<defs>
<clipPath id="clip0_102_102">
<rect width="26" height="28" fill="white" transform="translate(14 13)"/>
</clipPath>
</defs>
</svg>
