<svg width="54" height="54" viewBox="0 0 54 54" fill="none" xmlns="http://www.w3.org/2000/svg">
<path d="M1.00023 37.447V43C1.00023 48.5228 5.47738 53 11.0002 53H17.1602" stroke="black"/>
<path d="M3.20312 28.8364L3.18373 12.8961C3.17701 7.36383 7.66351 2.87836 13.1958 2.88633L41.3406 2.92691C46.854 2.93486 51.3218 7.40368 51.3285 12.9171L51.3622 40.6783C51.369 46.2106 46.8825 50.6961 41.3501 50.6881L13.2054 50.6475C7.69202 50.6395 3.22419 46.1707 3.21749 40.6574L3.20312 28.8364Z" stroke="black"/>
<path d="M53.0003 16.8672V11.0252C53.0003 5.51827 48.5479 1.04773 43.041 1.02531L36.8403 1.00005" stroke="black"/>
<path d="M17 48.9158H38.8399C44.3627 48.9158 48.8399 44.4386 48.8399 38.9158V17.0244" stroke="black"/>
<path d="M5.15336 37.6015L5.15429 15.0658C5.15452 9.54462 9.62926 5.06991 15.1505 5.06968L37.4747 5.06876" stroke="black"/>
<g clip-path="url(#clip0_141_52)">
<path d="M21.9053 13.4762C21.3076 13.5868 20.8118 13.833 20.2282 14.3114C19.081 15.2517 18.6702 16.4796 19.1008 17.6827C19.4974 18.7917 20.6673 19.9781 22.3982 21.029L22.8033 21.2752L19.0583 21.289L15.3161 21.3028L15.1603 21.3775C14.9563 21.4743 14.775 21.6513 14.6816 21.8421L14.6079 21.9942V24.8151V27.636L14.6872 27.7909C14.7722 27.9624 14.9507 28.1394 15.1235 28.2251C15.2481 28.2887 15.5088 28.3413 15.6901 28.3413H15.8119L15.8175 34.0882L15.826 39.8323L15.8997 39.9872C15.996 40.1863 16.1716 40.3577 16.3756 40.4518L16.5342 40.5237H26.435H36.3357L36.4944 40.4518C36.6983 40.3577 36.874 40.1863 36.9703 39.9872L37.0439 39.8323L37.0524 34.0909L37.0581 28.3496L37.2904 28.3274C37.4179 28.3191 37.5878 28.2832 37.67 28.2555C37.8683 28.1809 38.0751 27.9956 38.1771 27.7964L38.2621 27.636V24.8151V21.9942L38.1884 21.8421C38.0949 21.6485 37.9193 21.4771 37.7153 21.3803L37.5538 21.3028L34.1544 21.289L30.7551 21.2752L30.9817 21.1203C31.4859 20.7746 31.8825 20.4538 32.2848 20.0583C32.8825 19.4748 33.2111 19.0046 33.4094 18.4432C33.5001 18.1832 33.5029 18.1667 33.5001 17.7214C33.5001 17.2955 33.4944 17.2485 33.4207 17.0438C33.1743 16.3441 32.5397 15.6942 31.721 15.3043C31.3075 15.1051 31.0185 15.0332 30.5709 15.0194C30.1063 15.0028 29.823 15.0581 29.4265 15.2434C28.4123 15.7136 27.5341 16.9636 26.9307 18.8C26.8741 18.9742 26.8231 19.1235 26.8174 19.1263C26.8117 19.1318 26.7806 19.0461 26.7466 18.9327C26.4718 17.998 26.0865 17.0134 25.7126 16.2695C25.2764 15.4121 24.8911 14.859 24.3812 14.3612C23.9336 13.9242 23.4577 13.6422 22.9591 13.5149C22.6701 13.4403 22.1829 13.4237 21.9053 13.4762ZM22.6928 15.4149C23.2792 15.6942 23.9874 16.8613 24.5766 18.5234C24.7126 18.9023 25.0412 19.9754 25.1149 20.2768C25.1347 20.3542 25.129 20.3515 24.6871 20.1275C23.4747 19.5107 22.3302 18.7419 21.673 18.1086C20.9506 17.4089 20.7155 16.8419 20.9506 16.3635C21.1404 15.968 21.7042 15.4923 22.1404 15.3513C22.299 15.3015 22.5058 15.3264 22.6928 15.4149ZM30.8712 17.0023C31.3075 17.2153 31.5907 17.5057 31.5907 17.738C31.5907 17.8735 31.4689 18.1252 31.299 18.3437C31.0412 18.6783 30.4859 19.1512 29.8117 19.6103C29.4265 19.873 28.5086 20.4178 28.486 20.3985C28.4491 20.3598 28.8202 19.1927 29.0412 18.6479C29.2905 18.0339 29.6446 17.4421 29.9222 17.171C30.2451 16.8585 30.4916 16.8143 30.8712 17.0023ZM24.707 24.7598V26.35H20.6135H16.5201V24.7598V23.1696H20.6135H24.707V24.7598ZM36.3499 24.7598V26.35H32.3131H28.2763V24.7598V23.1696H32.3131H36.3499V24.7598ZM24.707 33.0704V38.6569H21.2226H17.7382V33.0704V27.4839H21.2226H24.707V33.0704ZM35.1318 33.0704V38.6569H31.704H28.2763V33.0704V27.4839H31.704H35.1318V33.0704Z" fill="black"/>
</g>
<defs>
<clipPath id="clip0_141_52">
<rect width="23.7391" height="27.1304" fill="white" transform="translate(14.5654 13.4348)"/>
</clipPath>
</defs>
</svg>
